<svg xmlns="http://www.w3.org/2000/svg" width="49.355" height="49.356" viewBox="0 0 49.355 49.356">
  <g id="Group_3960" data-name="Group 3960" transform="translate(-1182 -115)">
    <path id="Path_1439" data-name="Path 1439" d="M24.678,0A24.678,24.678,0,1,1,0,24.678,24.678,24.678,0,0,1,24.678,0Z" transform="translate(1182 115)" fill="#ef4c00"/>
    <g id="Icon_ionic-ios-options" data-name="Icon ionic-ios-options" transform="translate(1194 130)">
      <path id="Path_712" data-name="Path 712" d="M17.884,26.136a2.313,2.313,0,0,1,4.238,0h4.347a.926.926,0,0,1,.924.924h0a.926.926,0,0,1-.924.924H22.122a2.313,2.313,0,0,1-4.238,0H4.3a.926.926,0,0,1-.924-.924h0a.926.926,0,0,1,.924-.924Z" transform="translate(-3.375 -9.046)" fill="#fff"/>
      <path id="Path_713" data-name="Path 713" d="M8.646,16.573a2.313,2.313,0,0,1,4.238,0H26.469a.926.926,0,0,1,.924.924h0a.926.926,0,0,1-.924.924H12.884a2.313,2.313,0,0,1-4.238,0H4.3a.926.926,0,0,1-.924-.924h0a.926.926,0,0,1,.924-.924Z" transform="translate(-3.375 -7.335)" fill="#fff"/>
      <path id="Path_714" data-name="Path 714" d="M17.884,7.011a2.313,2.313,0,0,1,4.238,0h4.347a.926.926,0,0,1,.924.924h0a.926.926,0,0,1-.924.924H22.122a2.313,2.313,0,0,1-4.238,0H4.3a.926.926,0,0,1-.924-.924h0A.926.926,0,0,1,4.3,7.011Z" transform="translate(-3.375 -5.625)" fill="#fff"/>
    </g>
  </g>
</svg>
